# xmcd
#
# Track frame offsets:
#	150
#	15852
#	29822
#	48313
#	58763
#	79835
#	94074
#	111180
#	122156
#	139430
#	155824
#	168069
#	185130
#	203508
#	221272
#	237137
#	256025
#
# Disc length: 3617 seconds
#
# Revision: 30800996
# Processed by: cddbd v1.5.2PL0 Copyright (c) Steve Scherf et al.
# Submitted via: EZCDAudioConverter 8.3.2.1
#
DISCID=e60e1f11
DTITLE=Πλούταρχος Γιάννης - Δεν είναι ο έρωτας... παιδί της λογικής
DYEAR=2002
DGENRE=Λαϊκή νεώτερη
TTITLE0=Αν φταις εσύ
TTITLE1=Ποιο στόμα καίει τώρα τα χείλη σου
TTITLE2=Σαββάτο έκλαψα για 'σένα
TTITLE3=Δεν είναι ο έρωτας... παιδί της λογικής
TTITLE4=Τις φωτογραφίες σου κρατάω για να ζήσω
TTITLE5=Προσπάθησα λοιπόν να σε ξεχάσω
TTITLE6=Δεν είναι λύση ο χωρισμός
TTITLE7=Κι αν σ' αγάπησα τρελλή
TTITLE8=Έψαχνα χρόνια να σε βρω
TTITLE9=Μόνος αργά μεσάνυχτα
TTITLE10=Φοβάμαι εμένα, εμένα και μόνο
TTITLE11=Μη γυρίσεις ξανά
TTITLE12=Καρδιά μου ήσουν γυάλινη
TTITLE13=Γέλα, ποτέ μην κλαίς
TTITLE14=Μήπως σου ζήτησα πολλά
TTITLE15=Καμιά δεν μοιάζει με σένα μάτια μου
TTITLE16=Και ο νους μου πάλι ξενυχτά
EXTD=
EXTT0=
EXTT1=
EXTT2=
EXTT3=
EXTT4=
EXTT5=
EXTT6=
EXTT7=
EXTT8=
EXTT9=
EXTT10=
EXTT11=
EXTT12=
EXTT13=
EXTT14=
EXTT15=
EXTT16=
PLAYORDER=
